<?xml version="1.0" encoding="utf-8"?>
<!-- Generator: Adobe Illustrator 27.8.1, SVG Export Plug-In . SVG Version: 6.00 Build 0)  -->
<svg version="1.1" id="Capa_1" xmlns="http://www.w3.org/2000/svg" xmlns:xlink="http://www.w3.org/1999/xlink" x="0px" y="0px"
	 viewBox="0 0 910.2 670.9" style="enable-background:new 0 0 910.2 670.9;" xml:space="preserve">
<style type="text/css">
	.st0{fill:#FFCA28;}
	.st1{fill:none;stroke:#000000;stroke-width:2;}
	.st2{fill:#9DF4FF;}
	.st3{enable-background:new    ;}
	.st4{fill:#12263F;}
	.st5{fill:#039BE5;}
	.st6{fill:#4DD0E1;}
	.st7{fill:#FFFFFF;}
</style>
<path id="Trazado_106250" class="st0" d="M215.5,0.3h275c6.6,0,12,4.8,12,10.7v45.3c0,5.9-5.4,10.7-12,10.7l0,0h-275
	c-6.6,0-12-4.8-12-10.7l0,0V10.9C203.5,5,208.8,0.3,215.5,0.3z"/>
<path id="Trazado_105841" class="st1" d="M149.7,176.9v-51.3h432.7v283.5"/>
<path id="Trazado_105842" class="st1" d="M352.7,66.9v57.8"/>
<path id="Trazado_105843" class="st1" d="M391.7,446.1v-36.3h368v250"/>
<path id="Trazado_106238" class="st2" d="M623.2,609.9h275c6.6,0,12,4.4,12,9.8v41.5c0,5.4-5.4,9.8-12,9.8l0,0h-275
	c-6.6,0-12-4.4-12-9.8l0,0v-41.5C611.2,614.2,616.6,609.9,623.2,609.9z"/>
<path id="Trazado_106244" class="st2" d="M254.7,445.7h275c6.6,0,12,4.3,12,9.6v99c0,5.3-5.4,9.6-12,9.6h-275c-6.6,0-12-4.3-12-9.6
	v-99C242.7,450,248.1,445.7,254.7,445.7z"/>
<path id="Trazado_106244_00000127015009315844984520000000203910256926068155_" class="st2" d="M622.3,445.8h275
	c6.6,0,12,4.3,12,9.6v99c0,5.3-5.4,9.6-12,9.6h-275c-6.6,0-12-4.3-12-9.6v-99C610.3,450.1,615.7,445.8,622.3,445.8z"/>
<g>
	<g class="st3">
		<path class="st4" d="M370.4,474.9c-1.8-0.5-3.1-1.1-3.9-1.9c-0.8-0.7-1.2-1.7-1.2-2.7c0-1.2,0.5-2.3,1.5-3.1
			c1-0.8,2.3-1.2,3.8-1.2c1.1,0,2,0.2,2.9,0.6c0.8,0.4,1.5,1,2,1.7s0.7,1.5,0.7,2.4h-2.1c0-0.9-0.3-1.7-0.9-2.2
			c-0.6-0.5-1.5-0.8-2.5-0.8c-1,0-1.8,0.2-2.4,0.7c-0.6,0.4-0.9,1.1-0.9,1.9c0,0.6,0.3,1.2,0.8,1.6c0.5,0.4,1.5,0.8,2.8,1.2
			c1.3,0.4,2.3,0.8,3.1,1.2c0.7,0.4,1.3,1,1.6,1.5c0.4,0.6,0.5,1.3,0.5,2.1c0,1.3-0.5,2.3-1.5,3c-1,0.8-2.3,1.1-4,1.1
			c-1.1,0-2.1-0.2-3-0.6c-0.9-0.4-1.6-1-2.2-1.7c-0.5-0.7-0.8-1.5-0.8-2.4h2.1c0,0.9,0.3,1.7,1,2.2c0.7,0.5,1.6,0.8,2.8,0.8
			c1.1,0,1.9-0.2,2.5-0.7c0.6-0.4,0.9-1,0.9-1.8c0-0.8-0.3-1.4-0.8-1.8C372.8,475.8,371.8,475.3,370.4,474.9z"/>
		<path class="st4" d="M390.9,474.6c0,1.5-0.3,2.9-0.8,4s-1.2,2-2.2,2.6s-2,0.9-3.3,0.9c-1.2,0-2.3-0.3-3.3-0.9
			c-1-0.6-1.7-1.5-2.2-2.6s-0.8-2.4-0.8-3.9v-1.1c0-1.5,0.3-2.8,0.8-4c0.5-1.2,1.3-2,2.2-2.6c1-0.6,2-0.9,3.3-0.9
			c1.3,0,2.4,0.3,3.3,0.9s1.7,1.5,2.2,2.6c0.5,1.2,0.8,2.5,0.8,4V474.6z M388.9,473.6c0-1.9-0.4-3.3-1.1-4.3c-0.7-1-1.8-1.5-3.1-1.5
			c-1.3,0-2.3,0.5-3.1,1.5c-0.7,1-1.1,2.4-1.2,4.1v1.2c0,1.8,0.4,3.2,1.1,4.2c0.8,1,1.8,1.5,3.1,1.5c1.3,0,2.4-0.5,3.1-1.5
			c0.7-1,1.1-2.4,1.1-4.2V473.6z"/>
		<path class="st4" d="M402.4,477.8h-6.6l-1.5,4.1h-2.1l6-15.6h1.8l6,15.6h-2.1L402.4,477.8z M396.5,476.1h5.3l-2.7-7.3L396.5,476.1
			z"/>
		<path class="st4" d="M410.2,475.8v6.1h-2.1v-15.6h5.8c1.7,0,3.1,0.4,4,1.3c1,0.9,1.5,2,1.5,3.5c0,1.5-0.5,2.7-1.4,3.5
			c-0.9,0.8-2.3,1.2-4.1,1.2H410.2z M410.2,474.1h3.7c1.1,0,1.9-0.3,2.5-0.8c0.6-0.5,0.9-1.3,0.9-2.3c0-0.9-0.3-1.7-0.9-2.2
			c-0.6-0.6-1.4-0.8-2.4-0.9h-3.8V474.1z"/>
	</g>
</g>
<g class="st3">
	<path class="st4" d="M741.9,642h-3.6l-1.1,6.3h-2l2.7-15.6l4.7,0c1.6,0,2.9,0.4,3.7,1.2c0.9,0.8,1.2,1.9,1.1,3.4
		c-0.1,1-0.4,1.8-1.1,2.6c-0.6,0.7-1.5,1.3-2.5,1.7l2.4,6.6l0,0.1h-2.1L741.9,642z M738.6,640.3l3,0c1,0,1.9-0.3,2.6-0.8
		c0.7-0.5,1.1-1.3,1.2-2.2c0.1-0.9-0.1-1.6-0.5-2.1c-0.5-0.5-1.2-0.8-2.1-0.8l-3.1,0L738.6,640.3z"/>
	<path class="st4" d="M753.1,648.5c-1.4,0-2.6-0.6-3.4-1.6s-1.2-2.4-1-4l0.1-0.5c0.1-1.2,0.5-2.2,1-3.2s1.2-1.7,2.1-2.2
		c0.8-0.5,1.7-0.7,2.6-0.7c1.2,0,2.1,0.4,2.8,1.2s1.1,1.8,1.1,3.1c0,0.5,0,0.9,0,1.4l-0.1,0.9h-7.6c-0.1,1.1,0,1.9,0.5,2.7
		s1.2,1.1,2.1,1.1c1.1,0,2.2-0.5,3.2-1.5l1.1,0.9c-0.5,0.7-1.1,1.3-1.9,1.6C754.9,648.3,754.1,648.5,753.1,648.5z M754.4,638.1
		c-0.8,0-1.5,0.3-2.1,0.8c-0.6,0.6-1.1,1.4-1.4,2.5l5.7,0l0-0.2c0.1-0.9,0-1.7-0.4-2.3C755.7,638.4,755.1,638.1,754.4,638.1z"/>
	<path class="st4" d="M766.7,645.1c0.1-0.8-0.3-1.4-1.3-1.7l-2-0.6c-1.7-0.6-2.5-1.6-2.5-2.9c0-1,0.5-1.9,1.4-2.5
		c0.9-0.7,1.9-1,3.1-1c1.2,0,2.1,0.4,2.9,1c0.7,0.7,1.1,1.5,1.1,2.6l-1.9,0c0-0.6-0.2-1.1-0.5-1.4s-0.9-0.6-1.5-0.6
		c-0.7,0-1.3,0.2-1.7,0.5c-0.5,0.3-0.7,0.7-0.8,1.3c-0.1,0.7,0.3,1.2,1.2,1.5l1,0.3c1.3,0.3,2.3,0.8,2.8,1.3s0.8,1.2,0.8,2.1
		c0,0.7-0.3,1.4-0.7,1.9s-1,0.9-1.7,1.2c-0.7,0.3-1.5,0.4-2.3,0.4c-1.2,0-2.2-0.4-3.1-1.1c-0.8-0.7-1.2-1.6-1.2-2.7l1.9,0
		c0,0.7,0.2,1.2,0.6,1.6s1,0.6,1.7,0.6c0.7,0,1.3-0.1,1.8-0.4C766.4,646.1,766.6,645.7,766.7,645.1z"/>
	<path class="st4" d="M775.8,633.8l-0.5,2.8h2.1l-0.3,1.5H775l-1.2,7.2c0,0.2,0,0.4,0,0.5c0,0.6,0.4,0.8,0.9,0.8
		c0.2,0,0.6,0,0.9-0.1l-0.2,1.6c-0.5,0.1-0.9,0.2-1.4,0.2c-0.8,0-1.4-0.3-1.7-0.9c-0.4-0.6-0.5-1.3-0.5-2.2l1.2-7.2H771l0.3-1.5h2.1
		l0.5-2.8H775.8z"/>
	<path class="st4" d="M778.7,648.3l1.8-10.1h-1.8l0.3-1.5h1.8l0.2-1.4c0.2-1.2,0.6-2.1,1.4-2.7c0.8-0.7,1.7-1,2.9-1
		c0.4,0,0.8,0.1,1.4,0.2l-0.2,1.6c-0.3-0.1-0.7-0.1-1-0.1c-0.7,0-1.2,0.2-1.6,0.6c-0.4,0.4-0.7,1-0.8,1.7l-0.2,1.1h2.4l-0.3,1.5
		h-2.4l-1.8,10.1H778.7z"/>
	<path class="st4" d="M792.6,647.1c-0.9,0.9-2.1,1.4-3.5,1.4c-1.1,0-1.9-0.4-2.5-1.2c-0.5-0.8-0.7-1.8-0.6-3.1l1.2-7.5h1.9l-1.3,7.5
		c0,0.3,0,0.6,0,0.9c0,0.5,0.2,0.9,0.5,1.2c0.3,0.3,0.7,0.5,1.1,0.5c1.4,0,2.5-0.5,3.2-1.7l1.5-8.5h1.9l-2,11.6h-1.8L792.6,647.1z"
		/>
	<path class="st4" d="M799.2,648.3h-1.9l2.9-16.5h1.9L799.2,648.3z"/>
</g>
<path id="Trazado_106245" class="st5" d="M445.2,176.8h275c6.6,0,12,4.4,12,9.8V228c0,5.4-5.4,9.8-12,9.8l0,0h-275
	c-6.6,0-12-4.4-12-9.8l0,0v-41.5C433.2,181.2,438.6,176.8,445.2,176.8z"/>
<path id="Trazado_106243" class="st6" d="M445.2,295.5h275c6.6,0,12,4.4,12,9.8v41.5c0,5.4-5.4,9.8-12,9.8l0,0h-275
	c-6.6,0-12-4.4-12-9.8l0,0v-41.5C433.2,299.9,438.6,295.5,445.2,295.5z"/>
<g class="st3">
	<path class="st7" d="M546.1,209.4h-3.7v6.3h-2.1v-15.6h5.2c1.8,0,3.1,0.4,4.1,1.2s1.4,2,1.4,3.5c0,1-0.3,1.8-0.8,2.5
		s-1.3,1.3-2.2,1.6l3.7,6.6v0.1h-2.2L546.1,209.4z M542.4,207.7h3.2c1,0,1.8-0.3,2.4-0.8c0.6-0.5,0.9-1.2,0.9-2.1
		c0-1-0.3-1.7-0.9-2.2s-1.4-0.8-2.5-0.8h-3.2V207.7z"/>
	<path class="st7" d="M558.4,215.9c-1.6,0-2.9-0.5-3.8-1.6c-1-1-1.5-2.4-1.5-4.2v-0.4c0-1.2,0.2-2.2,0.7-3.1
		c0.4-0.9,1.1-1.6,1.8-2.1c0.8-0.5,1.6-0.8,2.6-0.8c1.5,0,2.7,0.5,3.5,1.5s1.3,2.4,1.3,4.3v0.8h-7.9c0,1.1,0.4,2.1,1,2.8
		c0.6,0.7,1.5,1.1,2.4,1.1c0.7,0,1.3-0.1,1.8-0.4c0.5-0.3,0.9-0.7,1.3-1.1l1.2,0.9C561.8,215.2,560.4,215.9,558.4,215.9z
		 M558.2,205.5c-0.8,0-1.5,0.3-2,0.9c-0.5,0.6-0.9,1.4-1,2.5h5.8v-0.2c-0.1-1-0.3-1.8-0.8-2.3C559.7,205.8,559,205.5,558.2,205.5z"
		/>
	<path class="st7" d="M567.1,204.1l0.1,1.3c0.9-1,2-1.5,3.4-1.5c1.6,0,2.7,0.6,3.3,1.9c0.4-0.6,0.9-1,1.5-1.4s1.4-0.5,2.2-0.5
		c2.5,0,3.8,1.3,3.9,4v7.8h-2v-7.7c0-0.8-0.2-1.5-0.6-1.9c-0.4-0.4-1-0.6-1.9-0.6c-0.7,0-1.4,0.2-1.8,0.7c-0.5,0.4-0.8,1-0.8,1.8
		v7.7h-2v-7.6c0-1.7-0.8-2.5-2.5-2.5c-1.3,0-2.2,0.6-2.7,1.7v8.5h-2v-11.6H567.1z"/>
	<path class="st7" d="M584,209.8c0-1.1,0.2-2.2,0.7-3.1s1.1-1.6,1.9-2.1s1.7-0.7,2.7-0.7c1.6,0,2.9,0.5,3.8,1.6s1.5,2.6,1.5,4.4v0.1
		c0,1.1-0.2,2.1-0.7,3c-0.4,0.9-1.1,1.6-1.9,2.1s-1.7,0.8-2.8,0.8c-1.6,0-2.9-0.5-3.8-1.6s-1.5-2.5-1.5-4.4V209.8z M586,210
		c0,1.3,0.3,2.3,0.9,3.1s1.4,1.2,2.4,1.2c1,0,1.8-0.4,2.4-1.2c0.6-0.8,0.9-1.9,0.9-3.3c0-1.3-0.3-2.3-0.9-3.1
		c-0.6-0.8-1.4-1.2-2.4-1.2c-1,0-1.8,0.4-2.4,1.2S586,208.6,586,210z"/>
	<path class="st7" d="M599.8,201.3v2.8h2.2v1.5h-2.2v7.2c0,0.5,0.1,0.8,0.3,1c0.2,0.2,0.5,0.3,1,0.3c0.2,0,0.5,0,0.9-0.1v1.6
		c-0.5,0.1-1,0.2-1.5,0.2c-0.9,0-1.6-0.3-2-0.8s-0.7-1.3-0.7-2.3v-7.2h-2.1v-1.5h2.1v-2.8H599.8z"/>
	<path class="st7" d="M611.5,215.7c-0.1-0.2-0.2-0.6-0.3-1.2c-0.9,1-2,1.4-3.3,1.4c-1.1,0-2.1-0.3-2.8-1c-0.7-0.6-1.1-1.5-1.1-2.5
		c0-1.2,0.5-2.2,1.4-2.8c0.9-0.7,2.2-1,3.9-1h1.9v-0.9c0-0.7-0.2-1.2-0.6-1.7c-0.4-0.4-1-0.6-1.8-0.6c-0.7,0-1.3,0.2-1.8,0.5
		c-0.5,0.4-0.7,0.8-0.7,1.3h-2c0-0.6,0.2-1.1,0.6-1.7c0.4-0.5,1-1,1.7-1.3s1.5-0.5,2.3-0.5c1.3,0,2.4,0.3,3.1,1
		c0.8,0.7,1.2,1.6,1.2,2.8v5.3c0,1.1,0.1,1.9,0.4,2.5v0.2H611.5z M608.2,214.2c0.6,0,1.2-0.2,1.8-0.5s1-0.7,1.2-1.3v-2.4h-1.6
		c-2.4,0-3.7,0.7-3.7,2.1c0,0.6,0.2,1.1,0.6,1.5C607,214,607.5,214.2,608.2,214.2z"/>
	<path class="st7" d="M623,212.6c0-0.5-0.2-1-0.6-1.3c-0.4-0.3-1.1-0.6-2.1-0.8s-1.8-0.5-2.4-0.8s-1-0.7-1.3-1.1s-0.4-0.9-0.4-1.5
		c0-1,0.4-1.8,1.2-2.4s1.8-1,3.1-1c1.3,0,2.4,0.3,3.2,1s1.2,1.6,1.2,2.6h-2c0-0.5-0.2-1-0.7-1.4s-1-0.6-1.7-0.6
		c-0.7,0-1.3,0.2-1.7,0.5s-0.6,0.7-0.6,1.2c0,0.5,0.2,0.8,0.6,1.1c0.4,0.2,1.1,0.5,2.1,0.7s1.8,0.5,2.4,0.8c0.6,0.3,1.1,0.7,1.4,1.1
		c0.3,0.4,0.4,1,0.4,1.6c0,1-0.4,1.9-1.2,2.5c-0.8,0.6-1.9,0.9-3.2,0.9c-0.9,0-1.8-0.2-2.5-0.5c-0.7-0.3-1.3-0.8-1.7-1.4
		c-0.4-0.6-0.6-1.2-0.6-1.9h2c0,0.7,0.3,1.2,0.8,1.6c0.5,0.4,1.2,0.6,2,0.6c0.8,0,1.4-0.2,1.8-0.5C622.8,213.6,623,213.2,623,212.6z
		"/>
</g>
<g>
	<g class="st3">
		<path class="st4" d="M519.8,326.7c-1.8-0.5-3.1-1.1-3.9-1.9c-0.8-0.7-1.2-1.7-1.2-2.7c0-1.2,0.5-2.3,1.5-3.1
			c1-0.8,2.3-1.2,3.8-1.2c1.1,0,2,0.2,2.9,0.6s1.5,1,2,1.7s0.7,1.5,0.7,2.4h-2.1c0-0.9-0.3-1.7-0.9-2.2c-0.6-0.5-1.5-0.8-2.5-0.8
			c-1,0-1.8,0.2-2.4,0.7s-0.9,1.1-0.9,1.9c0,0.6,0.3,1.2,0.8,1.6c0.5,0.4,1.5,0.8,2.8,1.2s2.3,0.8,3.1,1.2c0.7,0.4,1.3,1,1.6,1.5
			s0.5,1.3,0.5,2.1c0,1.3-0.5,2.3-1.5,3c-1,0.8-2.3,1.1-4,1.1c-1.1,0-2.1-0.2-3-0.6c-0.9-0.4-1.6-1-2.2-1.7s-0.8-1.5-0.8-2.4h2.1
			c0,0.9,0.3,1.7,1,2.2c0.7,0.5,1.6,0.8,2.8,0.8c1.1,0,1.9-0.2,2.5-0.7s0.9-1,0.9-1.8s-0.3-1.4-0.8-1.8
			C522.2,327.5,521.2,327.1,519.8,326.7z"/>
		<path class="st4" d="M532.8,333.9c-1.6,0-2.9-0.5-3.8-1.6c-1-1-1.5-2.4-1.5-4.2v-0.4c0-1.2,0.2-2.2,0.7-3.1
			c0.4-0.9,1.1-1.6,1.8-2.1c0.8-0.5,1.6-0.8,2.6-0.8c1.5,0,2.7,0.5,3.5,1.5s1.3,2.4,1.3,4.3v0.8h-7.9c0,1.1,0.4,2.1,1,2.8
			c0.6,0.7,1.5,1.1,2.4,1.1c0.7,0,1.3-0.1,1.8-0.4c0.5-0.3,0.9-0.7,1.3-1.1l1.2,0.9C536.2,333.2,534.7,333.9,532.8,333.9z
			 M532.5,323.5c-0.8,0-1.5,0.3-2,0.9c-0.5,0.6-0.9,1.4-1,2.5h5.8v-0.2c-0.1-1-0.3-1.8-0.8-2.3C534,323.8,533.4,323.5,532.5,323.5z"
			/>
		<path class="st4" d="M545.2,323.9c-0.3,0-0.6-0.1-1-0.1c-1.3,0-2.2,0.6-2.7,1.7v8.2h-2v-11.6h1.9l0,1.3c0.7-1,1.6-1.6,2.8-1.6
			c0.4,0,0.7,0,0.9,0.2V323.9z"/>
		<path class="st4" d="M551.1,331l2.9-8.9h2l-4.2,11.6h-1.5l-4.2-11.6h2L551.1,331z"/>
		<path class="st4" d="M557.9,319c0-0.3,0.1-0.6,0.3-0.8s0.5-0.3,0.9-0.3s0.7,0.1,0.9,0.3c0.2,0.2,0.3,0.5,0.3,0.8s-0.1,0.6-0.3,0.8
			c-0.2,0.2-0.5,0.3-0.9,0.3s-0.7-0.1-0.9-0.3S557.9,319.3,557.9,319z M560.1,333.7h-2v-11.6h2V333.7z"/>
		<path class="st4" d="M567.9,332.3c0.7,0,1.3-0.2,1.9-0.6c0.5-0.4,0.8-1,0.9-1.6h1.9c0,0.7-0.3,1.3-0.7,1.9c-0.4,0.6-1,1.1-1.7,1.4
			s-1.5,0.5-2.2,0.5c-1.6,0-2.8-0.5-3.8-1.6c-0.9-1.1-1.4-2.5-1.4-4.3v-0.3c0-1.1,0.2-2.1,0.6-3c0.4-0.9,1-1.6,1.8-2.1
			s1.7-0.7,2.8-0.7c1.3,0,2.4,0.4,3.2,1.2s1.3,1.8,1.4,3h-1.9c-0.1-0.8-0.3-1.4-0.9-1.9c-0.5-0.5-1.1-0.7-1.9-0.7
			c-1,0-1.8,0.4-2.3,1.1c-0.6,0.7-0.8,1.8-0.8,3.2v0.4c0,1.3,0.3,2.4,0.8,3.1C566.1,331.9,566.9,332.3,567.9,332.3z"/>
		<path class="st4" d="M574.8,319c0-0.3,0.1-0.6,0.3-0.8s0.5-0.3,0.9-0.3s0.7,0.1,0.9,0.3c0.2,0.2,0.3,0.5,0.3,0.8s-0.1,0.6-0.3,0.8
			c-0.2,0.2-0.5,0.3-0.9,0.3s-0.7-0.1-0.9-0.3S574.8,319.3,574.8,319z M576.9,333.7h-2v-11.6h2V333.7z"/>
		<path class="st4" d="M579.6,327.8c0-1.1,0.2-2.2,0.7-3.1s1.1-1.6,1.9-2.1s1.7-0.7,2.7-0.7c1.6,0,2.9,0.5,3.8,1.6s1.5,2.6,1.5,4.4
			v0.1c0,1.1-0.2,2.1-0.7,3c-0.4,0.9-1.1,1.6-1.9,2.1s-1.7,0.8-2.8,0.8c-1.6,0-2.9-0.5-3.8-1.6s-1.5-2.5-1.5-4.4V327.8z M581.6,328
			c0,1.3,0.3,2.3,0.9,3.1s1.4,1.2,2.4,1.2c1,0,1.8-0.4,2.4-1.2c0.6-0.8,0.9-1.9,0.9-3.3c0-1.3-0.3-2.3-0.9-3.1
			c-0.6-0.8-1.4-1.2-2.4-1.2c-1,0-1.8,0.4-2.4,1.2S581.6,326.6,581.6,328z"/>
		<path class="st4" d="M599.4,330.6c0-0.5-0.2-1-0.6-1.3c-0.4-0.3-1.1-0.6-2.1-0.8s-1.8-0.5-2.4-0.8s-1-0.7-1.3-1.1
			s-0.4-0.9-0.4-1.5c0-1,0.4-1.8,1.2-2.4s1.8-1,3.1-1c1.3,0,2.4,0.3,3.2,1s1.2,1.6,1.2,2.6h-2c0-0.5-0.2-1-0.7-1.4s-1-0.6-1.7-0.6
			c-0.7,0-1.3,0.2-1.7,0.5s-0.6,0.7-0.6,1.2c0,0.5,0.2,0.8,0.6,1.1c0.4,0.2,1.1,0.5,2.1,0.7s1.8,0.5,2.4,0.8
			c0.6,0.3,1.1,0.7,1.4,1.1c0.3,0.4,0.4,1,0.4,1.6c0,1-0.4,1.9-1.2,2.5c-0.8,0.6-1.9,0.9-3.2,0.9c-0.9,0-1.8-0.2-2.5-0.5
			c-0.7-0.3-1.3-0.8-1.7-1.4c-0.4-0.6-0.6-1.2-0.6-1.9h2c0,0.7,0.3,1.2,0.8,1.6c0.5,0.4,1.2,0.6,2,0.6c0.8,0,1.4-0.2,1.8-0.5
			C599.2,331.5,599.4,331.1,599.4,330.6z"/>
		<path class="st4" d="M613.1,328.8l0.3,2.1l0.4-1.9l3.1-10.9h1.7l3,10.9l0.4,1.9l0.3-2.1l2.4-10.7h2.1l-3.8,15.6h-1.9l-3.2-11.4
			l-0.2-1.2l-0.2,1.2l-3.3,11.4h-1.9l-3.8-15.6h2.1L613.1,328.8z"/>
		<path class="st4" d="M633.8,333.9c-1.6,0-2.9-0.5-3.8-1.6c-1-1-1.5-2.4-1.5-4.2v-0.4c0-1.2,0.2-2.2,0.7-3.1
			c0.4-0.9,1.1-1.6,1.8-2.1c0.8-0.5,1.6-0.8,2.6-0.8c1.5,0,2.7,0.5,3.5,1.5s1.3,2.4,1.3,4.3v0.8h-7.9c0,1.1,0.4,2.1,1,2.8
			c0.6,0.7,1.5,1.1,2.4,1.1c0.7,0,1.3-0.1,1.8-0.4c0.5-0.3,0.9-0.7,1.3-1.1l1.2,0.9C637.2,333.2,635.7,333.9,633.8,333.9z
			 M633.5,323.5c-0.8,0-1.5,0.3-2,0.9c-0.5,0.6-0.9,1.4-1,2.5h5.8v-0.2c-0.1-1-0.3-1.8-0.8-2.3C635,323.8,634.4,323.5,633.5,323.5z"
			/>
		<path class="st4" d="M650.4,328c0,1.8-0.4,3.2-1.2,4.3c-0.8,1.1-1.9,1.6-3.3,1.6c-1.5,0-2.6-0.5-3.4-1.6l-0.1,1.3h-1.8v-16.5h2
			v6.2c0.8-1,1.9-1.5,3.3-1.5c1.4,0,2.5,0.5,3.3,1.6s1.2,2.5,1.2,4.4V328z M648.5,327.8c0-1.4-0.3-2.4-0.8-3.1
			c-0.5-0.7-1.3-1.1-2.3-1.1c-1.3,0-2.3,0.6-2.8,1.8v5c0.6,1.2,1.6,1.8,2.8,1.8c1,0,1.7-0.4,2.2-1.1
			C648.2,330.4,648.5,329.3,648.5,327.8z"/>
	</g>
</g>
<g class="st3">
	<path class="st4" d="M300.7,30.6h-5.1v14.1h-2.8V30.6h-5.1v-2.3h13V30.6z"/>
	<path class="st4" d="M302.6,29.3c0-0.4,0.1-0.8,0.4-1c0.3-0.3,0.6-0.4,1.1-0.4s0.9,0.1,1.1,0.4s0.4,0.6,0.4,1c0,0.4-0.1,0.8-0.4,1
		s-0.7,0.4-1.1,0.4s-0.9-0.1-1.1-0.4C302.7,30.1,302.6,29.7,302.6,29.3z M305.5,44.6h-2.7V32.5h2.7V44.6z"/>
	<path class="st4" d="M319.1,38.7c0,1.9-0.4,3.4-1.3,4.5s-2,1.7-3.4,1.7c-1.3,0-2.4-0.4-3.2-1.3v5.8h-2.7V32.5h2.5l0.1,1.2
		c0.8-1,1.9-1.5,3.3-1.5c1.5,0,2.6,0.6,3.5,1.7c0.8,1.1,1.3,2.6,1.3,4.6V38.7z M316.4,38.4c0-1.2-0.2-2.2-0.7-2.9
		c-0.5-0.7-1.2-1.1-2.1-1.1c-1.1,0-1.9,0.5-2.4,1.4v5.4c0.5,0.9,1.3,1.4,2.4,1.4c0.9,0,1.5-0.3,2-1
		C316.1,40.9,316.4,39.9,316.4,38.4z"/>
	<path class="st4" d="M320.9,38.4c0-1.2,0.2-2.3,0.7-3.2c0.5-1,1.1-1.7,2-2.2s1.8-0.8,2.9-0.8c1.6,0,3,0.5,4,1.6
		c1,1.1,1.6,2.5,1.7,4.2l0,0.6c0,1.2-0.2,2.3-0.7,3.2c-0.5,0.9-1.1,1.7-2,2.2c-0.9,0.5-1.8,0.8-3,0.8c-1.7,0-3.1-0.6-4.1-1.7
		c-1-1.1-1.5-2.7-1.5-4.6V38.4z M323.6,38.7c0,1.2,0.3,2.2,0.8,2.9c0.5,0.7,1.2,1.1,2.2,1.1s1.6-0.4,2.2-1.1
		c0.5-0.7,0.8-1.8,0.8-3.2c0-1.2-0.3-2.2-0.8-2.9c-0.5-0.7-1.2-1.1-2.2-1.1c-0.9,0-1.6,0.4-2.1,1.1
		C323.9,36.2,323.6,37.3,323.6,38.7z"/>
	<path class="st4" d="M341.3,41.3c0-0.5-0.2-0.9-0.6-1.1c-0.4-0.3-1.1-0.5-2-0.7c-0.9-0.2-1.7-0.4-2.3-0.7c-1.4-0.7-2-1.6-2-2.9
		c0-1,0.4-1.9,1.3-2.6s2-1.1,3.4-1.1c1.5,0,2.6,0.4,3.5,1.1c0.9,0.7,1.3,1.7,1.3,2.8h-2.7c0-0.5-0.2-1-0.6-1.3
		c-0.4-0.3-0.9-0.5-1.5-0.5c-0.6,0-1.1,0.1-1.5,0.4c-0.4,0.3-0.6,0.6-0.6,1.1c0,0.4,0.2,0.7,0.5,1c0.4,0.2,1.1,0.5,2.1,0.7
		c1.1,0.2,1.9,0.5,2.5,0.8c0.6,0.3,1.1,0.7,1.4,1.2c0.3,0.5,0.4,1,0.4,1.7c0,1.1-0.5,2-1.4,2.7s-2.1,1-3.6,1c-1,0-1.9-0.2-2.7-0.5
		s-1.4-0.9-1.8-1.5s-0.7-1.3-0.7-2h2.7c0,0.6,0.3,1.1,0.7,1.5c0.4,0.3,1,0.5,1.8,0.5c0.7,0,1.3-0.1,1.6-0.4S341.3,41.8,341.3,41.3z"
		/>
	<path class="st4" d="M351.6,38.5c0-1.9,0.4-3.4,1.3-4.5c0.9-1.1,2-1.7,3.5-1.7c1.3,0,2.3,0.4,3.1,1.3v-6.2h2.7v17.2h-2.5l-0.1-1.3
		c-0.8,1-1.9,1.5-3.3,1.5c-1.4,0-2.6-0.6-3.5-1.7C352,42,351.6,40.4,351.6,38.5z M354.3,38.7c0,1.2,0.2,2.2,0.7,2.9
		c0.5,0.7,1.2,1,2,1c1.1,0,1.9-0.5,2.4-1.5v-5.2c-0.5-1-1.3-1.5-2.4-1.5c-0.9,0-1.6,0.3-2,1S354.3,37.3,354.3,38.7z"/>
	<path class="st4" d="M370.4,44.8c-1.7,0-3.1-0.5-4.2-1.6c-1.1-1.1-1.6-2.5-1.6-4.4v-0.3c0-1.2,0.2-2.3,0.7-3.3c0.5-1,1.1-1.7,2-2.2
		c0.8-0.5,1.8-0.8,2.8-0.8c1.7,0,2.9,0.5,3.8,1.6c0.9,1.1,1.4,2.5,1.4,4.5v1.1h-7.9c0.1,1,0.4,1.8,1,2.4c0.6,0.6,1.3,0.9,2.2,0.9
		c1.3,0,2.3-0.5,3.1-1.5l1.5,1.4c-0.5,0.7-1.1,1.3-1.9,1.7C372.4,44.6,371.4,44.8,370.4,44.8z M370.1,34.4c-0.7,0-1.4,0.3-1.8,0.8
		c-0.5,0.5-0.8,1.3-0.9,2.2h5.2v-0.2c-0.1-0.9-0.3-1.6-0.7-2.1S370.9,34.4,370.1,34.4z"/>
	<path class="st4" d="M392.6,40.8h-6.3l-1.3,3.8h-3l6.2-16.4h2.5l6.2,16.4h-3L392.6,40.8z M387,38.5h4.7l-2.4-6.8L387,38.5z"/>
	<path class="st4" d="M401.6,38.6v6.1h-2.8V28.3h6.3c1.8,0,3.3,0.5,4.4,1.4c1.1,1,1.6,2.2,1.6,3.8c0,1.6-0.5,2.9-1.6,3.7
		c-1.1,0.9-2.5,1.3-4.4,1.3H401.6z M401.6,36.3h3.4c1,0,1.8-0.2,2.3-0.7s0.8-1.2,0.8-2.1c0-0.9-0.3-1.6-0.8-2.1
		c-0.5-0.5-1.3-0.8-2.2-0.8h-3.5V36.3z"/>
	<path class="st4" d="M416.4,44.6h-2.8V28.3h2.8V44.6z"/>
</g>
<g class="st3">
	<path class="st4" d="M740.8,474.6h-3.7v6.3h-2.1v-15.6h5.2c1.8,0,3.1,0.4,4.1,1.2s1.4,2,1.4,3.5c0,1-0.3,1.8-0.8,2.5
		s-1.3,1.3-2.2,1.6l3.7,6.6v0.1h-2.2L740.8,474.6z M737.1,472.9h3.2c1,0,1.8-0.3,2.4-0.8c0.6-0.5,0.9-1.2,0.9-2.1
		c0-1-0.3-1.7-0.9-2.2s-1.4-0.8-2.5-0.8h-3.2V472.9z"/>
	<path class="st4" d="M757.5,473.7h-6.8v5.5h7.9v1.7h-9.9v-15.6h9.8v1.7h-7.8v5h6.8V473.7z"/>
	<path class="st4" d="M765.7,473.9c-1.8-0.5-3.1-1.1-3.9-1.9c-0.8-0.7-1.2-1.7-1.2-2.7c0-1.2,0.5-2.3,1.5-3.1c1-0.8,2.3-1.2,3.8-1.2
		c1.1,0,2,0.2,2.9,0.6s1.5,1,2,1.7s0.7,1.5,0.7,2.4h-2.1c0-0.9-0.3-1.7-0.9-2.2c-0.6-0.5-1.5-0.8-2.5-0.8c-1,0-1.8,0.2-2.4,0.7
		s-0.9,1.1-0.9,1.9c0,0.6,0.3,1.2,0.8,1.6c0.5,0.4,1.5,0.8,2.8,1.2s2.3,0.8,3.1,1.2c0.7,0.4,1.3,1,1.6,1.5s0.5,1.3,0.5,2.1
		c0,1.3-0.5,2.3-1.5,3c-1,0.8-2.3,1.1-4,1.1c-1.1,0-2.1-0.2-3-0.6c-0.9-0.4-1.6-1-2.2-1.7s-0.8-1.5-0.8-2.4h2.1c0,0.9,0.3,1.7,1,2.2
		c0.7,0.5,1.6,0.8,2.8,0.8c1.1,0,1.9-0.2,2.5-0.7s0.9-1,0.9-1.8s-0.3-1.4-0.8-1.8C768.1,474.8,767.1,474.3,765.7,473.9z"/>
	<path class="st4" d="M785,467h-5v14h-2.1v-14h-5v-1.7H785V467z"/>
</g>
<path id="Trazado_106252" class="st5" d="M12.2,176.8h275c6.6,0,12,4.4,12,9.8V228c0,5.4-5.4,9.8-12,9.8l0,0h-275
	c-6.6,0-12-4.4-12-9.8l0,0v-41.5C0.2,181.2,5.6,176.8,12.2,176.8z"/>
<g class="st3">
	<path class="st7" d="M115.5,214h7.4v1.7h-9.5v-15.6h2.1V214z"/>
	<path class="st7" d="M124.4,209.8c0-1.1,0.2-2.2,0.7-3.1c0.4-0.9,1.1-1.6,1.9-2.1c0.8-0.5,1.7-0.7,2.7-0.7c1.6,0,2.9,0.5,3.8,1.6
		s1.5,2.6,1.5,4.4v0.1c0,1.1-0.2,2.1-0.6,3c-0.4,0.9-1.1,1.6-1.9,2.1s-1.7,0.8-2.8,0.8c-1.6,0-2.9-0.5-3.8-1.6s-1.5-2.5-1.5-4.4
		V209.8z M126.4,210c0,1.3,0.3,2.3,0.9,3.1c0.6,0.8,1.4,1.2,2.4,1.2c1,0,1.8-0.4,2.4-1.2c0.6-0.8,0.9-1.9,0.9-3.3
		c0-1.3-0.3-2.3-0.9-3.1c-0.6-0.8-1.4-1.2-2.4-1.2c-1,0-1.8,0.4-2.4,1.2S126.4,208.6,126.4,210z"/>
	<path class="st7" d="M142.2,214.3c0.7,0,1.3-0.2,1.9-0.6c0.5-0.4,0.8-1,0.9-1.6h1.9c0,0.7-0.3,1.3-0.7,1.9c-0.4,0.6-1,1.1-1.7,1.4
		c-0.7,0.4-1.5,0.5-2.2,0.5c-1.6,0-2.8-0.5-3.8-1.6c-0.9-1.1-1.4-2.5-1.4-4.3v-0.3c0-1.1,0.2-2.1,0.6-3c0.4-0.9,1-1.6,1.8-2.1
		c0.8-0.5,1.7-0.7,2.8-0.7c1.3,0,2.4,0.4,3.2,1.2c0.9,0.8,1.3,1.8,1.4,3h-1.9c-0.1-0.8-0.3-1.4-0.9-1.9c-0.5-0.5-1.1-0.7-1.9-0.7
		c-1,0-1.8,0.4-2.3,1.1c-0.6,0.7-0.8,1.8-0.8,3.2v0.4c0,1.3,0.3,2.4,0.8,3.1C140.4,214,141.2,214.3,142.2,214.3z"/>
	<path class="st7" d="M156.2,215.7c-0.1-0.2-0.2-0.6-0.3-1.2c-0.9,1-2,1.4-3.3,1.4c-1.1,0-2.1-0.3-2.8-1c-0.7-0.6-1.1-1.5-1.1-2.5
		c0-1.2,0.5-2.2,1.4-2.8c0.9-0.7,2.2-1,3.9-1h1.9v-0.9c0-0.7-0.2-1.2-0.6-1.7c-0.4-0.4-1-0.6-1.8-0.6c-0.7,0-1.3,0.2-1.8,0.5
		c-0.5,0.4-0.7,0.8-0.7,1.3h-2c0-0.6,0.2-1.1,0.6-1.7c0.4-0.5,1-1,1.7-1.3c0.7-0.3,1.5-0.5,2.3-0.5c1.3,0,2.4,0.3,3.1,1
		c0.8,0.7,1.2,1.6,1.2,2.8v5.3c0,1.1,0.1,1.9,0.4,2.5v0.2H156.2z M152.9,214.2c0.6,0,1.2-0.2,1.8-0.5s1-0.7,1.2-1.3v-2.4h-1.6
		c-2.4,0-3.7,0.7-3.7,2.1c0,0.6,0.2,1.1,0.6,1.5C151.7,214,152.3,214.2,152.9,214.2z"/>
	<path class="st7" d="M163.2,215.7h-2v-16.5h2V215.7z"/>
	<path class="st7" d="M171.2,215.9c-1.6,0-2.9-0.5-3.8-1.6c-1-1-1.5-2.4-1.5-4.2v-0.4c0-1.2,0.2-2.2,0.7-3.1
		c0.4-0.9,1.1-1.6,1.8-2.1c0.8-0.5,1.6-0.8,2.6-0.8c1.5,0,2.7,0.5,3.5,1.5s1.3,2.4,1.3,4.3v0.8h-7.9c0,1.1,0.4,2.1,1,2.8
		c0.6,0.7,1.5,1.1,2.4,1.1c0.7,0,1.3-0.1,1.8-0.4c0.5-0.3,0.9-0.7,1.3-1.1l1.2,0.9C174.6,215.2,173.1,215.9,171.2,215.9z
		 M170.9,205.5c-0.8,0-1.5,0.3-2,0.9c-0.5,0.6-0.9,1.4-1,2.5h5.8v-0.2c-0.1-1-0.3-1.8-0.8-2.3C172.4,205.8,171.7,205.5,170.9,205.5z
		"/>
	<path class="st7" d="M184.8,212.6c0-0.5-0.2-1-0.6-1.3c-0.4-0.3-1.1-0.6-2.1-0.8c-1-0.2-1.8-0.5-2.4-0.8s-1-0.7-1.3-1.1
		c-0.3-0.4-0.4-0.9-0.4-1.5c0-1,0.4-1.8,1.2-2.4s1.8-1,3.1-1c1.3,0,2.4,0.3,3.2,1c0.8,0.7,1.2,1.6,1.2,2.6h-2c0-0.5-0.2-1-0.7-1.4
		s-1-0.6-1.7-0.6c-0.7,0-1.3,0.2-1.7,0.5s-0.6,0.7-0.6,1.2c0,0.5,0.2,0.8,0.6,1.1c0.4,0.2,1.1,0.5,2.1,0.7c1,0.2,1.8,0.5,2.4,0.8
		c0.6,0.3,1.1,0.7,1.4,1.1c0.3,0.4,0.4,1,0.4,1.6c0,1-0.4,1.9-1.2,2.5c-0.8,0.6-1.9,0.9-3.2,0.9c-0.9,0-1.8-0.2-2.5-0.5
		c-0.7-0.3-1.3-0.8-1.7-1.4c-0.4-0.6-0.6-1.2-0.6-1.9h2c0,0.7,0.3,1.2,0.8,1.6c0.5,0.4,1.2,0.6,2,0.6c0.8,0,1.4-0.2,1.8-0.5
		C184.5,213.6,184.8,213.2,184.8,212.6z"/>
</g>
<g>
	<path class="st4" d="M648.7,509.3c0.2-1.7,0.7-3.3,1.3-4.8c0.6-1.6,1.4-2.9,2.4-4c0.9-1.1,2-1.9,3.1-2.5l0.3,1.3
		c-1.1,0.8-2.1,1.9-2.9,3.3c-0.8,1.4-1.4,3-1.9,4.8c-0.4,1.9-0.6,3.7-0.6,5.5c0,1.5,0.2,2.8,0.6,3.9c0.4,1.1,0.9,2,1.7,2.7l-0.5,1.2
		c-1.2-0.8-2.1-2.1-2.7-3.7c-0.6-1.6-0.9-3.5-0.9-5.6c0-0.7,0.1-1.3,0.2-2L648.7,509.3z"/>
	<path class="st4" d="M662,509.3h-3.6l-1.1,6.3h-2L658,500l4.7,0c1.6,0,2.9,0.4,3.7,1.2c0.9,0.8,1.2,1.9,1.1,3.4
		c-0.1,1-0.4,1.8-1.1,2.6c-0.6,0.7-1.5,1.3-2.5,1.7l2.4,6.6l0,0.1h-2.1L662,509.3z M658.7,507.6l3,0c1,0,1.9-0.3,2.6-0.8
		c0.7-0.5,1.1-1.3,1.2-2.2c0.1-0.9-0.1-1.6-0.5-2.1s-1.2-0.8-2.1-0.8l-3.1,0L658.7,507.6z"/>
	<path class="st4" d="M673.3,515.8c-1.4,0-2.6-0.6-3.4-1.6s-1.2-2.4-1-4l0.1-0.5c0.1-1.2,0.5-2.2,1-3.2c0.6-1,1.2-1.7,2.1-2.2
		c0.8-0.5,1.7-0.7,2.6-0.7c1.2,0,2.1,0.4,2.8,1.2s1.1,1.8,1.1,3.1c0,0.5,0,0.9,0,1.4l-0.1,0.9h-7.6c-0.1,1.1,0,1.9,0.5,2.7
		c0.5,0.7,1.2,1.1,2.1,1.1c1.1,0,2.2-0.5,3.2-1.5l1.1,0.9c-0.5,0.7-1.1,1.3-1.9,1.6C675.1,515.7,674.2,515.9,673.3,515.8z
		 M674.5,505.4c-0.8,0-1.5,0.3-2.1,0.8c-0.6,0.6-1.1,1.4-1.4,2.5l5.7,0l0-0.2c0.1-0.9,0-1.7-0.4-2.3
		C675.9,505.7,675.3,505.4,674.5,505.4z"/>
	<path class="st4" d="M690.2,509.9c-0.1,1.2-0.5,2.2-1,3.2s-1.1,1.7-1.8,2.1c-0.7,0.5-1.5,0.7-2.4,0.7c-1.3,0-2.4-0.5-3.1-1.4
		l-1,5.6h-1.9l2.8-16.1l1.8,0l-0.2,1.3c1-1,2.1-1.5,3.4-1.5c1.1,0,2,0.4,2.6,1.2s1,1.9,1,3.3c0,0.5,0,0.9-0.1,1.3L690.2,509.9z
		 M688.3,509.7l0.1-0.9c0-1-0.2-1.8-0.6-2.4c-0.4-0.6-1-0.8-1.7-0.9c-1.1,0-2.1,0.5-2.9,1.6l-1,5.6c0.4,1,1.2,1.6,2.4,1.6
		c1,0,1.8-0.4,2.5-1.1C687.6,512.3,688.1,511.2,688.3,509.7z"/>
	<path class="st4" d="M699,505.8l-0.9-0.1c-1.2,0-2.2,0.6-2.9,1.7l-1.4,8.3h-1.9l2-11.6l1.9,0l-0.3,1.4c0.8-1.1,1.8-1.6,2.9-1.6
		c0.2,0,0.5,0.1,0.9,0.2L699,505.8z"/>
	<path class="st4" d="M704.1,515.8c-1.4,0-2.6-0.6-3.4-1.6s-1.2-2.4-1-4l0.1-0.5c0.1-1.2,0.5-2.2,1-3.2c0.6-1,1.2-1.7,2.1-2.2
		c0.8-0.5,1.7-0.7,2.6-0.7c1.2,0,2.1,0.4,2.8,1.2s1.1,1.8,1.1,3.1c0,0.5,0,0.9,0,1.4l-0.1,0.9h-7.6c-0.1,1.1,0,1.9,0.5,2.7
		c0.5,0.7,1.2,1.1,2.1,1.1c1.1,0,2.2-0.5,3.2-1.5l1.1,0.9c-0.5,0.7-1.1,1.3-1.9,1.6C705.9,515.7,705.1,515.9,704.1,515.8z
		 M705.3,505.4c-0.8,0-1.5,0.3-2.1,0.8c-0.6,0.6-1.1,1.4-1.4,2.5l5.7,0l0-0.2c0.1-0.9,0-1.7-0.4-2.3
		C706.7,505.7,706.1,505.4,705.3,505.4z"/>
	<path class="st4" d="M717.7,512.5c0.1-0.8-0.3-1.4-1.3-1.7l-2-0.6c-1.7-0.6-2.5-1.6-2.5-2.9c0-1,0.5-1.9,1.4-2.5
		c0.9-0.7,1.9-1,3.1-1c1.2,0,2.1,0.4,2.9,1c0.7,0.7,1.1,1.5,1.1,2.6l-1.9,0c0-0.6-0.2-1.1-0.5-1.4s-0.9-0.6-1.5-0.6
		c-0.7,0-1.3,0.2-1.7,0.5c-0.5,0.3-0.7,0.7-0.8,1.3c-0.1,0.7,0.3,1.2,1.2,1.5l1,0.3c1.3,0.3,2.3,0.8,2.8,1.3s0.8,1.2,0.8,2.1
		c0,0.7-0.3,1.4-0.7,1.9s-1,0.9-1.7,1.2c-0.7,0.3-1.5,0.4-2.3,0.4c-1.2,0-2.2-0.4-3.1-1.1c-0.8-0.7-1.2-1.6-1.2-2.7l1.9,0
		c0,0.7,0.2,1.2,0.6,1.6s1,0.6,1.7,0.6c0.7,0,1.3-0.1,1.8-0.4C717.3,513.5,717.6,513,717.7,512.5z"/>
	<path class="st4" d="M726.6,515.8c-1.4,0-2.6-0.6-3.4-1.6s-1.2-2.4-1-4l0.1-0.5c0.1-1.2,0.5-2.2,1-3.2c0.6-1,1.2-1.7,2.1-2.2
		c0.8-0.5,1.7-0.7,2.6-0.7c1.2,0,2.1,0.4,2.8,1.2s1.1,1.8,1.1,3.1c0,0.5,0,0.9,0,1.4l-0.1,0.9h-7.6c-0.1,1.1,0,1.9,0.5,2.7
		c0.5,0.7,1.2,1.1,2.1,1.1c1.1,0,2.2-0.5,3.2-1.5l1.1,0.9c-0.5,0.7-1.1,1.3-1.9,1.6C728.4,515.7,727.6,515.9,726.6,515.8z
		 M727.9,505.4c-0.8,0-1.5,0.3-2.1,0.8c-0.6,0.6-1.1,1.4-1.4,2.5l5.7,0l0-0.2c0.1-0.9,0-1.7-0.4-2.3
		C729.2,505.7,728.6,505.4,727.9,505.4z"/>
	<path class="st4" d="M736.9,504l-0.3,1.5c1-1.1,2.2-1.7,3.6-1.7c1.1,0,1.9,0.4,2.4,1.1s0.7,1.8,0.6,3.1l-1.3,7.6h-1.9l1.3-7.6
		c0-0.4,0-0.7,0-1c-0.1-1-0.7-1.5-1.8-1.5c-1.2,0-2.2,0.6-3.1,1.9l-1.4,8.3H733l2-11.6L736.9,504z"/>
	<path class="st4" d="M750,501.2l-0.5,2.8h2.1l-0.3,1.5h-2.1l-1.2,7.2c0,0.2,0,0.4,0,0.5c0,0.6,0.4,0.8,0.9,0.8c0.2,0,0.6,0,0.9-0.1
		l-0.2,1.6c-0.5,0.1-0.9,0.2-1.4,0.2c-0.8,0-1.4-0.3-1.7-0.9c-0.4-0.6-0.5-1.3-0.5-2.2l1.2-7.2h-2.1l0.3-1.5h2.1l0.5-2.8H750z"/>
	<path class="st4" d="M759.1,515.6c0-0.2-0.1-0.4-0.1-0.6l0-0.6c-1.1,1-2.2,1.5-3.4,1.4c-1,0-1.9-0.3-2.5-1
		c-0.6-0.6-0.9-1.4-0.9-2.4c0.1-1.2,0.6-2.2,1.6-2.9c1-0.7,2.3-1,4-1l2,0l0.1-0.9c0.1-0.7-0.1-1.2-0.4-1.6c-0.3-0.4-0.9-0.6-1.5-0.6
		c-0.7,0-1.3,0.1-1.8,0.5c-0.5,0.3-0.8,0.8-0.9,1.3l-2,0c0.1-0.7,0.3-1.3,0.8-1.8c0.5-0.5,1.1-0.9,1.8-1.2c0.7-0.3,1.5-0.4,2.3-0.4
		c1.2,0,2.2,0.4,2.8,1.1c0.7,0.7,1,1.6,0.8,2.8l-0.9,5.8l-0.1,0.8c0,0.4,0,0.8,0.1,1.2l0,0.2H759.1z M756,514.1
		c0.6,0,1.2-0.1,1.8-0.4c0.6-0.3,1-0.7,1.4-1.3l0.4-2.4l-1.5,0c-1.2,0-2.2,0.2-2.8,0.6s-1,0.9-1.1,1.6c-0.1,0.5,0.1,1,0.4,1.4
		C755,513.9,755.4,514.1,756,514.1z"/>
	<path class="st4" d="M768.8,501.2l-0.5,2.8h2.1l-0.3,1.5h-2.1l-1.2,7.2c0,0.2,0,0.4,0,0.5c0,0.6,0.4,0.8,0.9,0.8
		c0.2,0,0.6,0,0.9-0.1l-0.2,1.6c-0.5,0.1-0.9,0.2-1.4,0.2c-0.8,0-1.4-0.3-1.7-0.9c-0.4-0.6-0.5-1.3-0.5-2.2l1.2-7.2h-2.1l0.3-1.5
		h2.1l0.5-2.8H768.8z"/>
	<path class="st4" d="M772.9,515.6h-1.9l2-11.6h1.9L772.9,515.6z M774.5,499.8c0.3,0,0.6,0.1,0.8,0.3c0.2,0.2,0.3,0.5,0.3,0.8
		c0,0.3-0.1,0.6-0.3,0.8c-0.2,0.2-0.5,0.3-0.8,0.3s-0.6-0.1-0.8-0.3s-0.3-0.5-0.3-0.8s0.1-0.6,0.3-0.8S774.1,499.8,774.5,499.8z"/>
	<path class="st4" d="M782.5,503.8c1,0,1.8,0.3,2.5,0.8s1.2,1.2,1.5,2.1c0.3,0.9,0.4,1.9,0.3,3l0,0.2c-0.1,1.1-0.5,2.2-1,3.1
		c-0.5,0.9-1.2,1.6-2.1,2.1s-1.8,0.7-2.8,0.7c-1,0-1.8-0.3-2.5-0.8c-0.7-0.5-1.2-1.2-1.5-2.1s-0.4-1.9-0.3-2.9
		c0.1-1.2,0.4-2.3,1-3.2s1.2-1.7,2.1-2.2C780.5,504,781.5,503.8,782.5,503.8z M778.5,510c0,0.5,0,0.9,0,1.4c0.1,0.8,0.3,1.5,0.8,2
		c0.4,0.5,1,0.8,1.7,0.8c0.6,0,1.2-0.1,1.8-0.5c0.5-0.3,1-0.9,1.4-1.5s0.6-1.5,0.7-2.3c0.1-0.7,0.1-1.2,0-1.7
		c-0.1-0.9-0.3-1.6-0.8-2.1s-1-0.8-1.7-0.8c-1,0-1.9,0.4-2.6,1.2s-1.1,1.9-1.3,3.2L778.5,510z"/>
	<path class="st4" d="M792.2,504l-0.3,1.5c1-1.1,2.2-1.7,3.6-1.7c1.1,0,1.9,0.4,2.4,1.1s0.7,1.8,0.6,3.1l-1.3,7.6h-1.9l1.3-7.6
		c0-0.4,0-0.7,0-1c-0.1-1-0.7-1.5-1.8-1.5c-1.2,0-2.2,0.6-3.1,1.9l-1.4,8.3h-1.9l2-11.6L792.2,504z"/>
	<path class="st4" d="M807.3,515.6c0-0.2-0.1-0.4-0.1-0.6l0-0.6c-1.1,1-2.2,1.5-3.4,1.4c-1,0-1.9-0.3-2.5-1
		c-0.6-0.6-0.9-1.4-0.9-2.4c0.1-1.2,0.6-2.2,1.6-2.9c1-0.7,2.3-1,4-1l2,0l0.1-0.9c0.1-0.7-0.1-1.2-0.4-1.6c-0.3-0.4-0.9-0.6-1.5-0.6
		c-0.7,0-1.3,0.1-1.8,0.5c-0.5,0.3-0.8,0.8-0.9,1.3l-2,0c0.1-0.7,0.3-1.3,0.8-1.8c0.5-0.5,1.1-0.9,1.8-1.2c0.7-0.3,1.5-0.4,2.3-0.4
		c1.2,0,2.2,0.4,2.8,1.1c0.7,0.7,1,1.6,0.8,2.8l-0.9,5.8l-0.1,0.8c0,0.4,0,0.8,0.1,1.2l0,0.2H807.3z M804.3,514.1
		c0.6,0,1.2-0.1,1.8-0.4c0.6-0.3,1-0.7,1.4-1.3l0.4-2.4l-1.5,0c-1.2,0-2.2,0.2-2.8,0.6s-1,0.9-1.1,1.6c-0.1,0.5,0.1,1,0.4,1.4
		C803.2,513.9,803.7,514.1,804.3,514.1z"/>
	<path class="st4" d="M814,515.6h-1.9l2.9-16.5h1.9L814,515.6z"/>
	<path class="st4" d="M831.7,511.6c0.2-1.1-0.4-2-1.8-2.5l-1.9-0.7l-0.6-0.3c-2.1-1-3.1-2.3-2.9-4c0.1-0.9,0.4-1.6,0.9-2.3
		s1.2-1.2,2.1-1.5c0.9-0.4,1.8-0.5,2.8-0.5c0.9,0,1.8,0.2,2.5,0.6c0.7,0.4,1.3,1,1.7,1.7c0.4,0.7,0.6,1.5,0.5,2.4l-2,0
		c0.1-1-0.1-1.7-0.6-2.2c-0.5-0.5-1.2-0.8-2.1-0.8c-1,0-1.8,0.2-2.5,0.7c-0.7,0.5-1,1.1-1.1,1.9c-0.1,1.1,0.5,1.9,2,2.4l1.6,0.6
		l0.8,0.3c2,0.9,3,2.3,2.8,4.1c-0.1,0.9-0.4,1.6-0.9,2.3c-0.5,0.6-1.2,1.1-2.1,1.5c-0.9,0.4-1.8,0.5-2.9,0.5c-1,0-1.9-0.2-2.7-0.6
		c-0.8-0.4-1.4-1-1.9-1.7s-0.6-1.5-0.6-2.4l2,0c-0.1,0.9,0.2,1.7,0.8,2.2c0.6,0.5,1.4,0.8,2.4,0.8s1.9-0.2,2.6-0.7
		S831.6,512.4,831.7,511.6z"/>
	<path class="st4" d="M840.5,501.2L840,504h2.1l-0.3,1.5h-2.1l-1.2,7.2c0,0.2,0,0.4,0,0.5c0,0.6,0.4,0.8,0.9,0.8
		c0.2,0,0.6,0,0.9-0.1l-0.2,1.6c-0.5,0.1-0.9,0.2-1.4,0.2c-0.8,0-1.4-0.3-1.7-0.9c-0.4-0.6-0.5-1.3-0.5-2.2l1.2-7.2h-2.1l0.3-1.5
		h2.1l0.5-2.8H840.5z"/>
	<path class="st4" d="M849.6,515.6c0-0.2-0.1-0.4-0.1-0.6l0-0.6c-1.1,1-2.2,1.5-3.4,1.4c-1,0-1.9-0.3-2.5-1
		c-0.6-0.6-0.9-1.4-0.9-2.4c0.1-1.2,0.6-2.2,1.6-2.9c1-0.7,2.3-1,4-1l2,0l0.1-0.9c0.1-0.7-0.1-1.2-0.4-1.6c-0.3-0.4-0.9-0.6-1.5-0.6
		c-0.7,0-1.3,0.1-1.8,0.5c-0.5,0.3-0.8,0.8-0.9,1.3l-2,0c0.1-0.7,0.3-1.3,0.8-1.8c0.5-0.5,1.1-0.9,1.8-1.2c0.7-0.3,1.5-0.4,2.3-0.4
		c1.2,0,2.2,0.4,2.8,1.1c0.7,0.7,1,1.6,0.8,2.8l-0.9,5.8l-0.1,0.8c0,0.4,0,0.8,0.1,1.2l0,0.2H849.6z M846.5,514.1
		c0.6,0,1.2-0.1,1.8-0.4c0.6-0.3,1-0.7,1.4-1.3l0.4-2.4l-1.5,0c-1.2,0-2.2,0.2-2.8,0.6s-1,0.9-1.1,1.6c-0.1,0.5,0.1,1,0.4,1.4
		C845.4,513.9,845.9,514.1,846.5,514.1z"/>
	<path class="st4" d="M859.3,501.2l-0.5,2.8h2.1l-0.3,1.5h-2.1l-1.2,7.2c0,0.2,0,0.4,0,0.5c0,0.6,0.4,0.8,0.9,0.8
		c0.2,0,0.6,0,0.9-0.1l-0.2,1.6c-0.5,0.1-0.9,0.2-1.4,0.2c-0.8,0-1.4-0.3-1.7-0.9c-0.4-0.6-0.5-1.3-0.5-2.2l1.2-7.2h-2.1l0.3-1.5
		h2.1l0.5-2.8H859.3z"/>
	<path class="st4" d="M866.3,515.8c-1.4,0-2.6-0.6-3.4-1.6s-1.2-2.4-1-4l0.1-0.5c0.1-1.2,0.5-2.2,1-3.2c0.6-1,1.2-1.7,2.1-2.2
		c0.8-0.5,1.7-0.7,2.6-0.7c1.2,0,2.1,0.4,2.8,1.2s1.1,1.8,1.1,3.1c0,0.5,0,0.9,0,1.4l-0.1,0.9h-7.6c-0.1,1.1,0,1.9,0.5,2.7
		c0.5,0.7,1.2,1.1,2.1,1.1c1.1,0,2.2-0.5,3.2-1.5l1.1,0.9c-0.5,0.7-1.1,1.3-1.9,1.6C868.1,515.7,867.2,515.9,866.3,515.8z
		 M867.5,505.4c-0.8,0-1.5,0.3-2.1,0.8c-0.6,0.6-1.1,1.4-1.4,2.5l5.7,0l0-0.2c0.1-0.9,0-1.7-0.4-2.3
		C868.8,505.7,868.3,505.4,867.5,505.4z"/>
	<path class="st4" d="M729.6,528.1h-4.9l-2.4,14h-2l2.4-14h-4.9l0.3-1.7h11.7L729.6,528.1z"/>
	<path class="st4" d="M735.7,532.2l-0.9-0.1c-1.2,0-2.2,0.6-2.9,1.7l-1.4,8.3h-1.9l2-11.6l1.9,0l-0.3,1.4c0.8-1.1,1.8-1.6,2.9-1.6
		c0.2,0,0.5,0.1,0.9,0.2L735.7,532.2z"/>
	<path class="st4" d="M742.5,542c0-0.2-0.1-0.4-0.1-0.6l0-0.6c-1.1,1-2.2,1.5-3.4,1.4c-1,0-1.9-0.3-2.5-1c-0.6-0.6-0.9-1.4-0.9-2.4
		c0.1-1.2,0.6-2.2,1.6-2.9c1-0.7,2.3-1,4-1l2,0l0.1-0.9c0.1-0.7-0.1-1.2-0.4-1.6c-0.3-0.4-0.9-0.6-1.5-0.6c-0.7,0-1.3,0.1-1.8,0.5
		c-0.5,0.3-0.8,0.8-0.9,1.3l-2,0c0.1-0.7,0.3-1.3,0.8-1.8c0.5-0.5,1.1-0.9,1.8-1.2c0.7-0.3,1.5-0.4,2.3-0.4c1.2,0,2.2,0.4,2.8,1.1
		c0.7,0.7,1,1.6,0.8,2.8l-0.9,5.8l-0.1,0.8c0,0.4,0,0.8,0.1,1.2l0,0.2H742.5z M739.4,540.5c0.6,0,1.2-0.1,1.8-0.4
		c0.6-0.3,1-0.7,1.4-1.3l0.4-2.4l-1.5,0c-1.2,0-2.2,0.2-2.8,0.6s-1,0.9-1.1,1.6c-0.1,0.5,0.1,1,0.4,1.4
		C738.3,540.3,738.8,540.5,739.4,540.5z"/>
	<path class="st4" d="M750.9,530.4l-0.3,1.5c1-1.1,2.2-1.7,3.6-1.7c1.1,0,1.9,0.4,2.4,1.1s0.7,1.8,0.6,3.1L756,542H754l1.3-7.6
		c0-0.4,0-0.7,0-1c-0.1-1-0.7-1.5-1.8-1.5c-1.2,0-2.2,0.6-3.1,1.9L749,542h-1.9l2-11.6L750.9,530.4z"/>
	<path class="st4" d="M766.2,538.9c0.1-0.8-0.3-1.4-1.3-1.7l-2-0.6c-1.7-0.6-2.5-1.6-2.5-2.9c0-1,0.5-1.9,1.4-2.5
		c0.9-0.7,1.9-1,3.1-1c1.2,0,2.1,0.4,2.9,1c0.7,0.7,1.1,1.5,1.1,2.6l-1.9,0c0-0.6-0.2-1.1-0.5-1.4s-0.9-0.6-1.5-0.6
		c-0.7,0-1.3,0.2-1.7,0.5c-0.5,0.3-0.7,0.7-0.8,1.3c-0.1,0.7,0.3,1.2,1.2,1.5l1,0.3c1.3,0.3,2.3,0.8,2.8,1.3s0.8,1.2,0.8,2.1
		c0,0.7-0.3,1.4-0.7,1.9s-1,0.9-1.7,1.2c-0.7,0.3-1.5,0.4-2.3,0.4c-1.2,0-2.2-0.4-3.1-1.1c-0.8-0.7-1.2-1.6-1.2-2.7l1.9,0
		c0,0.7,0.2,1.2,0.6,1.6s1,0.6,1.7,0.6c0.7,0,1.3-0.1,1.8-0.4C765.8,539.9,766.1,539.4,766.2,538.9z"/>
	<path class="st4" d="M771,542l1.8-10.1H771l0.3-1.5h1.8l0.2-1.4c0.2-1.2,0.6-2.1,1.4-2.7c0.8-0.7,1.7-1,2.9-1
		c0.4,0,0.8,0.1,1.4,0.2l-0.2,1.6c-0.3-0.1-0.7-0.1-1-0.1c-0.7,0-1.2,0.2-1.6,0.6c-0.4,0.4-0.7,1-0.8,1.7l-0.2,1.1h2.4l-0.3,1.5
		h-2.4L773,542H771z"/>
	<path class="st4" d="M782.6,542.2c-1.4,0-2.6-0.6-3.4-1.6s-1.2-2.4-1-4l0.1-0.5c0.1-1.2,0.5-2.2,1-3.2c0.6-1,1.2-1.7,2.1-2.2
		c0.8-0.5,1.7-0.7,2.6-0.7c1.2,0,2.1,0.4,2.8,1.2s1.1,1.8,1.1,3.1c0,0.5,0,0.9,0,1.4l-0.1,0.9h-7.6c-0.1,1.1,0,1.9,0.5,2.7
		c0.5,0.7,1.2,1.1,2.1,1.1c1.1,0,2.2-0.5,3.2-1.5l1.1,0.9c-0.5,0.7-1.1,1.3-1.9,1.6C784.4,542.1,783.6,542.3,782.6,542.2z
		 M783.8,531.8c-0.8,0-1.5,0.3-2.1,0.8c-0.6,0.6-1.1,1.4-1.4,2.5l5.7,0l0-0.2c0.1-0.9,0-1.7-0.4-2.3
		C785.2,532.1,784.6,531.8,783.8,531.8z"/>
	<path class="st4" d="M796.2,532.2l-0.9-0.1c-1.2,0-2.2,0.6-2.9,1.7l-1.4,8.3H789l2-11.6l1.9,0l-0.3,1.4c0.8-1.1,1.8-1.6,2.9-1.6
		c0.2,0,0.5,0.1,0.9,0.2L796.2,532.2z"/>
	<path class="st4" d="M801.9,535.8c-0.3,1.7-0.7,3.4-1.4,5c-0.7,1.6-1.4,2.9-2.4,3.9c-0.9,1.1-1.9,1.9-3.1,2.4l-0.3-1.2
		c2.5-1.8,4.1-4.8,4.9-8.9c0.3-1.6,0.5-3.2,0.5-4.8c0-3.1-0.8-5.3-2.2-6.6l0.5-1.2c0.8,0.6,1.5,1.3,2,2.2c0.6,0.9,1,2,1.2,3.2
		c0.3,1.2,0.4,2.5,0.3,3.8c0,0.7-0.1,1.3-0.2,2L801.9,535.8z"/>
</g>
<g>
	<g>
		<path class="st4" d="M285.7,510.3c0.2-1.7,0.7-3.3,1.3-4.8c0.6-1.6,1.4-2.9,2.4-4c0.9-1.1,2-1.9,3.1-2.5l0.3,1.3
			c-1.1,0.8-2.1,1.9-2.9,3.3c-0.8,1.4-1.4,3-1.9,4.8c-0.4,1.9-0.6,3.7-0.6,5.5c0,1.5,0.2,2.8,0.6,3.9c0.4,1.1,0.9,2,1.7,2.7
			l-0.5,1.2c-1.2-0.8-2.1-2.1-2.7-3.7c-0.6-1.6-0.9-3.5-0.9-5.6c0-0.7,0.1-1.3,0.2-2L285.7,510.3z"/>
		<path class="st4" d="M301.1,512.6c0.2-1.1-0.4-2-1.8-2.5l-1.9-0.7l-0.6-0.3c-2.1-1-3.1-2.3-2.9-4c0.1-0.9,0.4-1.6,0.9-2.3
			s1.2-1.2,2.1-1.5c0.9-0.4,1.8-0.5,2.8-0.5c0.9,0,1.8,0.2,2.5,0.6c0.7,0.4,1.3,1,1.7,1.7c0.4,0.7,0.6,1.5,0.5,2.4l-2,0
			c0.1-1-0.1-1.7-0.6-2.2c-0.5-0.5-1.2-0.8-2.1-0.8c-1,0-1.8,0.2-2.5,0.7c-0.7,0.5-1,1.1-1.1,1.9c-0.1,1.1,0.5,1.9,2,2.4l1.6,0.6
			l0.8,0.3c2,0.9,3,2.3,2.8,4.1c-0.1,0.9-0.4,1.6-0.9,2.3c-0.5,0.6-1.2,1.1-2.1,1.5c-0.9,0.4-1.8,0.5-2.9,0.5c-1,0-1.9-0.2-2.7-0.6
			c-0.8-0.4-1.4-1-1.9-1.7s-0.6-1.5-0.6-2.4l2,0c-0.1,0.9,0.2,1.7,0.8,2.2c0.6,0.5,1.4,0.8,2.4,0.8s1.9-0.2,2.6-0.7
			S301,513.4,301.1,512.6z"/>
		<path class="st4" d="M306.9,516.6H305l2-11.6h1.9L306.9,516.6z M308.5,500.8c0.3,0,0.6,0.1,0.8,0.3c0.2,0.2,0.3,0.5,0.3,0.8
			c0,0.3-0.1,0.6-0.3,0.8c-0.2,0.2-0.5,0.3-0.8,0.3s-0.6-0.1-0.8-0.3s-0.3-0.5-0.3-0.8s0.1-0.6,0.3-0.8S308.2,500.8,308.5,500.8z"/>
		<path class="st4" d="M313.9,505l-0.2,1.3c1-1,2.2-1.5,3.5-1.5c0.7,0,1.4,0.2,1.9,0.5c0.5,0.3,0.9,0.8,1.1,1.4
			c1.1-1.3,2.4-1.9,3.9-1.9c1.2,0,2,0.4,2.6,1.2s0.8,1.8,0.6,3l-1.3,7.6h-1.9l1.3-7.7c0-0.4,0-0.7,0-1c-0.1-1-0.8-1.5-1.9-1.5
			c-0.7,0-1.4,0.2-1.9,0.7c-0.6,0.5-0.9,1.1-1.1,1.8l-1.3,7.7h-2l1.3-7.6c0.1-0.8,0-1.4-0.4-1.8c-0.3-0.4-0.8-0.7-1.6-0.7
			c-1.2,0-2.2,0.5-2.9,1.7l-1.5,8.5h-1.9l2-11.6L313.9,505z"/>
		<path class="st4" d="M339.4,510.9c-0.1,1.2-0.5,2.2-1,3.2s-1.1,1.7-1.8,2.1c-0.7,0.5-1.5,0.7-2.4,0.7c-1.3,0-2.4-0.5-3.1-1.4
			l-1,5.6h-1.9l2.8-16.1l1.8,0l-0.2,1.3c1-1,2.1-1.5,3.4-1.5c1.1,0,2,0.4,2.6,1.2s1,1.9,1,3.3c0,0.5,0,0.9-0.1,1.3L339.4,510.9z
			 M337.5,510.7l0.1-0.9c0-1-0.2-1.8-0.6-2.4c-0.4-0.6-1-0.8-1.7-0.9c-1.1,0-2.1,0.5-2.9,1.6l-1,5.6c0.4,1,1.2,1.6,2.4,1.6
			c1,0,1.8-0.4,2.5-1.1C336.8,513.3,337.3,512.2,337.5,510.7z"/>
		<path class="st4" d="M343.1,516.6h-1.9l2.9-16.5h1.9L343.1,516.6z"/>
		<path class="st4" d="M351.3,516.8c-1.4,0-2.6-0.6-3.4-1.6s-1.2-2.4-1-4l0.1-0.5c0.1-1.2,0.5-2.2,1-3.2c0.6-1,1.2-1.7,2.1-2.2
			c0.8-0.5,1.7-0.7,2.6-0.7c1.2,0,2.1,0.4,2.8,1.2s1.1,1.8,1.1,3.1c0,0.5,0,0.9,0,1.4l-0.1,0.9h-7.6c-0.1,1.1,0,1.9,0.5,2.7
			c0.5,0.7,1.2,1.1,2.1,1.1c1.1,0,2.2-0.5,3.2-1.5l1.1,0.9c-0.5,0.7-1.1,1.3-1.9,1.6C353.1,516.7,352.2,516.9,351.3,516.8z
			 M352.5,506.4c-0.8,0-1.5,0.3-2.1,0.8c-0.6,0.6-1.1,1.4-1.4,2.5l5.7,0l0-0.2c0.1-0.9,0-1.7-0.4-2.3
			C353.8,506.7,353.3,506.4,352.5,506.4z"/>
		<path class="st4" d="M369.1,516.8c-1,0-1.9-0.3-2.6-0.7c-0.7-0.5-1.3-1.1-1.7-2c-0.4-0.9-0.7-1.9-0.7-3c0-0.9,0.1-1.9,0.3-3.2
			s0.6-2.4,1.2-3.4s1.3-1.8,2.1-2.5c1.1-0.8,2.4-1.2,3.8-1.2c1.5,0,2.7,0.6,3.6,1.6c0.9,1,1.4,2.4,1.4,4.2c0,0.8,0,1.7-0.2,2.9
			c-0.2,1.2-0.5,2.2-1,3.2c-0.5,1-1.1,1.8-1.8,2.5C372.3,516.3,370.8,516.9,369.1,516.8z M374.6,507c0-1.4-0.2-2.5-0.7-3.3
			c-0.5-0.8-1.3-1.2-2.4-1.2c-1,0-1.8,0.2-2.6,0.8c-0.8,0.5-1.4,1.4-1.9,2.4c-0.5,1.1-0.8,2.5-0.9,4.1l0,0.7c0,1.4,0.2,2.5,0.8,3.3
			s1.3,1.2,2.4,1.2c1.4,0,2.5-0.5,3.4-1.5c0.9-1,1.5-2.4,1.8-4.3C374.5,508.5,374.6,507.7,374.6,507z"/>
		<path class="st4" d="M388.4,510.9c-0.1,1.2-0.5,2.3-1,3.2s-1.1,1.7-1.8,2.1s-1.5,0.7-2.4,0.7c-1.4,0-2.4-0.6-3.1-1.6l-0.4,1.4
			h-1.8l2.9-16.5h1.9l-1.2,6.2c0.9-1,2.1-1.5,3.4-1.5c1.1,0,2,0.4,2.6,1.2s1,1.9,1,3.3c0,0.5,0,0.9-0.1,1.3L388.4,510.9z
			 M386.5,509.8c0-1-0.2-1.8-0.5-2.4c-0.4-0.6-0.9-0.8-1.7-0.9c-1.2,0-2.2,0.6-3.1,1.8l-0.9,5.1c0.4,1.2,1.2,1.8,2.4,1.8
			c0.8,0,1.4-0.2,2-0.7c0.6-0.5,1-1.1,1.3-2S386.5,510.7,386.5,509.8z"/>
		<path class="st4" d="M393.9,505l-2.2,13c-0.1,1.1-0.5,1.9-1.1,2.5c-0.6,0.6-1.4,0.9-2.3,0.8c-0.4,0-0.8-0.1-1.3-0.2l0.2-1.6
			c0.3,0.1,0.6,0.1,0.9,0.1c0.9,0,1.5-0.6,1.7-1.7l2.2-13H393.9z M392.3,502c0-0.3,0.1-0.6,0.3-0.8c0.2-0.2,0.5-0.3,0.8-0.4
			c0.3,0,0.6,0.1,0.8,0.3c0.2,0.2,0.3,0.5,0.3,0.8c0,0.3-0.1,0.6-0.3,0.8s-0.5,0.3-0.8,0.3c-0.3,0-0.6-0.1-0.8-0.3
			S392.3,502.3,392.3,502z"/>
		<path class="st4" d="M400.1,516.8c-1.4,0-2.6-0.6-3.4-1.6s-1.2-2.4-1-4l0.1-0.5c0.1-1.2,0.5-2.2,1-3.2c0.6-1,1.2-1.7,2.1-2.2
			c0.8-0.5,1.7-0.7,2.6-0.7c1.2,0,2.1,0.4,2.8,1.2s1.1,1.8,1.1,3.1c0,0.5,0,0.9,0,1.4l-0.1,0.9h-7.6c-0.1,1.1,0,1.9,0.5,2.7
			c0.5,0.7,1.2,1.1,2.1,1.1c1.1,0,2.2-0.5,3.2-1.5l1.1,0.9c-0.5,0.7-1.1,1.3-1.9,1.6C401.9,516.7,401.1,516.9,400.1,516.8z
			 M401.4,506.4c-0.8,0-1.5,0.3-2.1,0.8c-0.6,0.6-1.1,1.4-1.4,2.5l5.7,0l0-0.2c0.1-0.9,0-1.7-0.4-2.3
			C402.7,506.7,402.1,506.4,401.4,506.4z"/>
		<path class="st4" d="M411.4,515.2c0.7,0,1.3-0.2,1.9-0.6c0.6-0.4,0.9-1,1.1-1.6l1.8,0c-0.1,0.7-0.4,1.4-0.9,2
			c-0.5,0.6-1.1,1.1-1.8,1.4s-1.5,0.5-2.2,0.5c-1,0-1.8-0.3-2.5-0.8c-0.7-0.5-1.2-1.2-1.5-2.1c-0.3-0.9-0.4-1.9-0.3-3l0.1-0.5
			c0.1-1.1,0.5-2.1,1-3s1.2-1.6,2-2.1c0.8-0.5,1.7-0.7,2.8-0.7c1.2,0,2.2,0.4,2.9,1.2s1.1,1.8,1.1,3l-1.8,0c0-0.8-0.2-1.4-0.6-1.8
			c-0.4-0.5-1-0.7-1.7-0.7c-1,0-1.8,0.4-2.5,1.1c-0.7,0.8-1.1,1.9-1.3,3.2l0,0.3c0,0.5,0,0.9,0,1.4c0,0.8,0.3,1.5,0.7,2
			S410.7,515.2,411.4,515.2z"/>
		<path class="st4" d="M422.9,502.2l-0.5,2.8h2.1l-0.3,1.5h-2.1l-1.2,7.2c0,0.2,0,0.4,0,0.5c0,0.6,0.4,0.8,0.9,0.8
			c0.2,0,0.6,0,0.9-0.1l-0.2,1.6c-0.5,0.1-0.9,0.2-1.4,0.2c-0.8,0-1.4-0.3-1.7-0.9c-0.4-0.6-0.5-1.3-0.5-2.2l1.2-7.2h-2.1l0.3-1.5
			h2.1l0.5-2.8H422.9z"/>
		<path class="st4" d="M439.7,512.5h-6.3l-2.1,4.1h-2.2l8.5-15.6h1.8l3.1,15.6h-2L439.7,512.5z M434.3,510.9h5.1l-1.3-7.3
			L434.3,510.9z"/>
		<path class="st4" d="M449.2,515.2c0.7,0,1.3-0.2,1.9-0.6c0.6-0.4,0.9-1,1.1-1.6l1.8,0c-0.1,0.7-0.4,1.4-0.9,2
			c-0.5,0.6-1.1,1.1-1.8,1.4s-1.5,0.5-2.2,0.5c-1,0-1.8-0.3-2.5-0.8c-0.7-0.5-1.2-1.2-1.5-2.1c-0.3-0.9-0.4-1.9-0.3-3l0.1-0.5
			c0.1-1.1,0.5-2.1,1-3s1.2-1.6,2-2.1c0.8-0.5,1.7-0.7,2.8-0.7c1.2,0,2.2,0.4,2.9,1.2s1.1,1.8,1.1,3l-1.8,0c0-0.8-0.2-1.4-0.6-1.8
			c-0.4-0.5-1-0.7-1.7-0.7c-1,0-1.8,0.4-2.5,1.1c-0.7,0.8-1.1,1.9-1.3,3.2l0,0.3c0,0.5,0,0.9,0,1.4c0,0.8,0.3,1.5,0.7,2
			S448.5,515.2,449.2,515.2z"/>
		<path class="st4" d="M460.5,515.2c0.7,0,1.3-0.2,1.9-0.6c0.6-0.4,0.9-1,1.1-1.6l1.8,0c-0.1,0.7-0.4,1.4-0.9,2
			c-0.5,0.6-1.1,1.1-1.8,1.4s-1.5,0.5-2.2,0.5c-1,0-1.8-0.3-2.5-0.8c-0.7-0.5-1.2-1.2-1.5-2.1c-0.3-0.9-0.4-1.9-0.3-3l0.1-0.5
			c0.1-1.1,0.5-2.1,1-3s1.2-1.6,2-2.1c0.8-0.5,1.7-0.7,2.8-0.7c1.2,0,2.2,0.4,2.9,1.2s1.1,1.8,1.1,3l-1.8,0c0-0.8-0.2-1.4-0.6-1.8
			c-0.4-0.5-1-0.7-1.7-0.7c-1,0-1.8,0.4-2.5,1.1c-0.7,0.8-1.1,1.9-1.3,3.2l0,0.3c0,0.5,0,0.9,0,1.4c0,0.8,0.3,1.5,0.7,2
			S459.8,515.2,460.5,515.2z"/>
		<path class="st4" d="M471.9,516.8c-1.4,0-2.6-0.6-3.4-1.6s-1.2-2.4-1-4l0.1-0.5c0.1-1.2,0.5-2.2,1-3.2c0.6-1,1.2-1.7,2.1-2.2
			c0.8-0.5,1.7-0.7,2.6-0.7c1.2,0,2.1,0.4,2.8,1.2s1.1,1.8,1.1,3.1c0,0.5,0,0.9,0,1.4l-0.1,0.9h-7.6c-0.1,1.1,0,1.9,0.5,2.7
			c0.5,0.7,1.2,1.1,2.1,1.1c1.1,0,2.2-0.5,3.2-1.5l1.1,0.9c-0.5,0.7-1.1,1.3-1.9,1.6C473.7,516.7,472.8,516.9,471.9,516.8z
			 M473.1,506.4c-0.8,0-1.5,0.3-2.1,0.8c-0.6,0.6-1.1,1.4-1.4,2.5l5.7,0l0-0.2c0.1-0.9,0-1.7-0.4-2.3
			C474.5,506.7,473.9,506.4,473.1,506.4z"/>
		<path class="st4" d="M485.5,513.5c0.1-0.8-0.3-1.4-1.3-1.7l-2-0.6c-1.7-0.6-2.5-1.6-2.5-2.9c0-1,0.5-1.9,1.4-2.5
			c0.9-0.7,1.9-1,3.1-1c1.2,0,2.1,0.4,2.9,1c0.7,0.7,1.1,1.5,1.1,2.6l-1.9,0c0-0.6-0.2-1.1-0.5-1.4s-0.9-0.6-1.5-0.6
			c-0.7,0-1.3,0.2-1.7,0.5c-0.5,0.3-0.7,0.7-0.8,1.3c-0.1,0.7,0.3,1.2,1.2,1.5l1,0.3c1.3,0.3,2.3,0.8,2.8,1.3s0.8,1.2,0.8,2.1
			c0,0.7-0.3,1.4-0.7,1.9s-1,0.9-1.7,1.2c-0.7,0.3-1.5,0.4-2.3,0.4c-1.2,0-2.2-0.4-3.1-1.1c-0.8-0.7-1.2-1.6-1.2-2.7l1.9,0
			c0,0.7,0.2,1.2,0.6,1.6s1,0.6,1.7,0.6c0.7,0,1.3-0.1,1.8-0.4C485.1,514.5,485.4,514,485.5,513.5z"/>
		<path class="st4" d="M496.6,513.5c0.1-0.8-0.3-1.4-1.3-1.7l-2-0.6c-1.7-0.6-2.5-1.6-2.5-2.9c0-1,0.5-1.9,1.4-2.5
			c0.9-0.7,1.9-1,3.1-1c1.2,0,2.1,0.4,2.9,1c0.7,0.7,1.1,1.5,1.1,2.6l-1.9,0c0-0.6-0.2-1.1-0.5-1.4s-0.9-0.6-1.5-0.6
			c-0.7,0-1.3,0.2-1.7,0.5c-0.5,0.3-0.7,0.7-0.8,1.3c-0.1,0.7,0.3,1.2,1.2,1.5l1,0.3c1.3,0.3,2.3,0.8,2.8,1.3s0.8,1.2,0.8,2.1
			c0,0.7-0.3,1.4-0.7,1.9s-1,0.9-1.7,1.2c-0.7,0.3-1.5,0.4-2.3,0.4c-1.2,0-2.2-0.4-3.1-1.1c-0.8-0.7-1.2-1.6-1.2-2.7l1.9,0
			c0,0.7,0.2,1.2,0.6,1.6s1,0.6,1.7,0.6c0.7,0,1.3-0.1,1.8-0.4C496.2,514.5,496.5,514,496.6,513.5z"/>
		<path class="st4" d="M351.7,536.9l-1.1,6.1h-2l2.7-15.6l5.2,0c1.6,0,2.9,0.4,3.7,1.3c0.9,0.9,1.2,2,1.1,3.4
			c-0.1,1.5-0.7,2.7-1.8,3.5c-1.1,0.9-2.5,1.3-4.2,1.3L351.7,536.9z M352,535.2l3.5,0c1.1,0,2-0.3,2.7-0.8s1.1-1.3,1.2-2.3
			c0.1-0.9-0.1-1.6-0.5-2.1c-0.5-0.5-1.2-0.8-2.1-0.9l-3.7,0L352,535.2z"/>
		<path class="st4" d="M369.1,533.2l-0.9-0.1c-1.2,0-2.2,0.6-2.9,1.7l-1.4,8.3h-1.9l2-11.6l1.9,0l-0.3,1.4c0.8-1.1,1.8-1.6,2.9-1.6
			c0.2,0,0.5,0.1,0.9,0.2L369.1,533.2z"/>
		<path class="st4" d="M375.4,531.2c1,0,1.8,0.3,2.5,0.8s1.2,1.2,1.5,2.1c0.3,0.9,0.4,1.9,0.3,3l0,0.2c-0.1,1.1-0.5,2.2-1,3.1
			c-0.5,0.9-1.2,1.6-2.1,2.1s-1.8,0.7-2.8,0.7c-1,0-1.8-0.3-2.5-0.8c-0.7-0.5-1.2-1.2-1.5-2.1s-0.4-1.9-0.3-2.9
			c0.1-1.2,0.4-2.3,1-3.2s1.2-1.7,2.1-2.2C373.5,531.4,374.4,531.2,375.4,531.2z M371.5,537.4c0,0.5,0,0.9,0,1.4
			c0.1,0.8,0.3,1.5,0.8,2c0.4,0.5,1,0.8,1.7,0.8c0.6,0,1.2-0.1,1.8-0.5c0.5-0.3,1-0.9,1.4-1.5s0.6-1.5,0.7-2.3
			c0.1-0.7,0.1-1.2,0-1.7c-0.1-0.9-0.3-1.6-0.8-2.1s-1-0.8-1.7-0.8c-1,0-1.9,0.4-2.6,1.2s-1.1,1.9-1.3,3.2L371.5,537.4z"/>
		<path class="st4" d="M386.4,528.6l-0.5,2.8h2.1l-0.3,1.5h-2.1l-1.2,7.2c0,0.2,0,0.4,0,0.5c0,0.6,0.4,0.8,0.9,0.8
			c0.2,0,0.6,0,0.9-0.1l-0.2,1.6c-0.5,0.1-0.9,0.2-1.4,0.2c-0.8,0-1.4-0.3-1.7-0.9c-0.4-0.6-0.5-1.3-0.5-2.2l1.2-7.2h-2.1l0.3-1.5
			h2.1l0.5-2.8H386.4z"/>
		<path class="st4" d="M394.6,531.2c1,0,1.8,0.3,2.5,0.8s1.2,1.2,1.5,2.1c0.3,0.9,0.4,1.9,0.3,3l0,0.2c-0.1,1.1-0.5,2.2-1,3.1
			c-0.5,0.9-1.2,1.6-2.1,2.1s-1.8,0.7-2.8,0.7c-1,0-1.8-0.3-2.5-0.8c-0.7-0.5-1.2-1.2-1.5-2.1s-0.4-1.9-0.3-2.9
			c0.1-1.2,0.4-2.3,1-3.2s1.2-1.7,2.1-2.2C392.6,531.4,393.6,531.2,394.6,531.2z M390.6,537.4c0,0.5,0,0.9,0,1.4
			c0.1,0.8,0.3,1.5,0.8,2c0.4,0.5,1,0.8,1.7,0.8c0.6,0,1.2-0.1,1.8-0.5c0.5-0.3,1-0.9,1.4-1.5s0.6-1.5,0.7-2.3
			c0.1-0.7,0.1-1.2,0-1.7c-0.1-0.9-0.3-1.6-0.8-2.1s-1-0.8-1.7-0.8c-1,0-1.9,0.4-2.6,1.2s-1.1,1.9-1.3,3.2L390.6,537.4z"/>
		<path class="st4" d="M405.3,541.6c0.7,0,1.3-0.2,1.9-0.6c0.6-0.4,0.9-1,1.1-1.6l1.8,0c-0.1,0.7-0.4,1.4-0.9,2
			c-0.5,0.6-1.1,1.1-1.8,1.4s-1.5,0.5-2.2,0.5c-1,0-1.8-0.3-2.5-0.8c-0.7-0.5-1.2-1.2-1.5-2.1c-0.3-0.9-0.4-1.9-0.3-3l0.1-0.5
			c0.1-1.1,0.5-2.1,1-3s1.2-1.6,2-2.1c0.8-0.5,1.7-0.7,2.8-0.7c1.2,0,2.2,0.4,2.9,1.2s1.1,1.8,1.1,3l-1.8,0c0-0.8-0.2-1.4-0.6-1.8
			c-0.4-0.5-1-0.7-1.7-0.7c-1,0-1.8,0.4-2.5,1.1c-0.7,0.8-1.1,1.9-1.3,3.2l0,0.3c0,0.5,0,0.9,0,1.4c0,0.8,0.3,1.5,0.7,2
			S404.6,541.6,405.3,541.6z"/>
		<path class="st4" d="M418.1,531.2c1,0,1.8,0.3,2.5,0.8s1.2,1.2,1.5,2.1c0.3,0.9,0.4,1.9,0.3,3l0,0.2c-0.1,1.1-0.5,2.2-1,3.1
			c-0.5,0.9-1.2,1.6-2.1,2.1s-1.8,0.7-2.8,0.7c-1,0-1.8-0.3-2.5-0.8c-0.7-0.5-1.2-1.2-1.5-2.1s-0.4-1.9-0.3-2.9
			c0.1-1.2,0.4-2.3,1-3.2s1.2-1.7,2.1-2.2C416.2,531.4,417.1,531.2,418.1,531.2z M414.2,537.4c0,0.5,0,0.9,0,1.4
			c0.1,0.8,0.3,1.5,0.8,2c0.4,0.5,1,0.8,1.7,0.8c0.6,0,1.2-0.1,1.8-0.5c0.5-0.3,1-0.9,1.4-1.5s0.6-1.5,0.7-2.3
			c0.1-0.7,0.1-1.2,0-1.7c-0.1-0.9-0.3-1.6-0.8-2.1s-1-0.8-1.7-0.8c-1,0-1.9,0.4-2.6,1.2s-1.1,1.9-1.3,3.2L414.2,537.4z"/>
		<path class="st4" d="M426.1,543h-1.9l2.9-16.5h1.9L426.1,543z"/>
		<path class="st4" d="M434.8,536.7c-0.3,1.7-0.7,3.4-1.4,5c-0.7,1.6-1.4,2.9-2.4,3.9c-0.9,1.1-1.9,1.9-3.1,2.4l-0.3-1.2
			c2.5-1.8,4.1-4.8,4.9-8.9c0.3-1.6,0.5-3.2,0.5-4.8c0-3.1-0.8-5.3-2.2-6.6l0.5-1.2c0.8,0.6,1.5,1.3,2,2.2c0.6,0.9,1,2,1.2,3.2
			c0.3,1.2,0.4,2.5,0.3,3.8c0,0.7-0.1,1.3-0.2,2L434.8,536.7z"/>
	</g>
</g>
</svg>
